<svg width="26" height="26" viewBox="0 0 26 26" fill="none" xmlns="http://www.w3.org/2000/svg">
<path d="M19.82 5.68652C20.8191 6.61821 21.6167 7.74472 22.1636 8.99657C22.7105 10.2484 22.9952 11.5991 22.9999 12.9652C23.0047 14.3313 22.7295 15.6838 22.1914 16.9395C21.6532 18.1951 20.8635 19.3272 19.8709 20.2658M17.092 8.61194C17.6915 9.17095 18.17 9.84686 18.4982 10.598C18.8263 11.3491 18.9971 12.1595 19 12.9791C19.0028 13.7988 18.8377 14.6103 18.5148 15.3637C18.1919 16.1171 17.7181 16.7963 17.1225 17.3595M8.4803 16.4069L10.1555 18.48C11.0288 19.5607 11.4655 20.1011 11.848 20.1599C12.1792 20.2108 12.5138 20.0925 12.7394 19.8448C13 19.5586 13 18.8638 13 17.4744V8.52572C13 7.13627 13 6.44155 12.7394 6.15536C12.5138 5.90761 12.1792 5.78929 11.848 5.84021C11.4655 5.89904 11.0288 6.43939 10.1555 7.52009L8.4803 9.59319C8.30388 9.81151 8.21567 9.92067 8.10652 9.99922C8.00982 10.0688 7.90147 10.1206 7.78656 10.152C7.65687 10.1876 7.51652 10.1876 7.23583 10.1876H5.8125C5.0563 10.1876 4.6782 10.1876 4.37264 10.2885C3.77131 10.4872 3.2996 10.9589 3.10094 11.5602C3 11.8658 3 12.2439 3 13.0001C3 13.7563 3 14.1344 3.10094 14.4399C3.2996 15.0413 3.77131 15.513 4.37264 15.7116C4.6782 15.8126 5.0563 15.8126 5.8125 15.8126H7.23583C7.51652 15.8126 7.65687 15.8126 7.78656 15.8481C7.90147 15.8796 8.00982 15.9313 8.10652 16.0009C8.21567 16.0794 8.30388 16.1886 8.4803 16.4069Z" stroke="black" stroke-width="2" stroke-linecap="round" stroke-linejoin="round"/>
</svg>

